<svg version="1.1" xmlns="http://www.w3.org/2000/svg" viewBox="0 0 600.5306464657187 706.924242424242" width="600.5306464657187" height="706.924242424242" filter="invert(93%) hue-rotate(180deg)">
  <!-- svg-source:excalidraw -->
  
  <defs>
    <style>
      @font-face {
        font-family: "Virgil";
        src: url("https://excalidraw.com/Virgil.woff2");
      }
      @font-face {
        font-family: "Cascadia";
        src: url("https://excalidraw.com/Cascadia.woff2");
      }
    </style>
  </defs>
  <rect x="0" y="0" width="600.5306464657187" height="706.924242424242" fill="#ffffff"></rect><g stroke-linecap="round"><g transform="translate(310.6744030208647 778.062429033942) rotate(0 139.8533194894353 -370.9368988484357)" fill-rule="evenodd"><path d="M-0.88 -197.12 L141.58 -549.16 L278.34 -193.61 L1.13 -191.22" stroke="none" stroke-width="0" fill="#000" fill-rule="evenodd"></path><path d="M1.59 -194.44 C43.03 -292.66, 82 -395, 141.11 -547.98 M0.34 -196.05 C53.33 -327.99, 105.01 -460.14, 140.82 -549.22 M138.59 -548.14 C183.79 -436.45, 226.71 -325.15, 279.44 -196.26 M140.7 -548.9 C166.6 -478.01, 195.65 -407.49, 279.86 -195.36 M278.12 -197.6 C217.89 -192.62, 160.17 -191.1, 0.58 -194.35 M279.33 -194.47 C216.97 -192.55, 154.09 -192.48, -0.15 -194.83 M0 -195.06 C0 -195.06, 0 -195.06, 0 -195.06 M0 -195.06 C0 -195.06, 0 -195.06, 0 -195.06" stroke="#000000" stroke-width="4" fill="none"></path></g></g><g stroke-linecap="round"><g transform="translate(10.621239214389789 588.333333333333) rotate(0 221.14168805554618 -274.14662620757144)" fill-rule="evenodd"><path d="M-2.79 0.53 L222.63 -550.33 L440.52 1.85 L1.27 -1.84" stroke="none" stroke-width="0" fill="#000" fill-rule="evenodd"></path><path d="M1.49 -0.33 C53.8 -137.86, 108.71 -273.01, 221.15 -548.57 M-0.62 -0.64 C50.93 -124.75, 99.3 -247.12, 222.47 -550.2 M223.56 -549.89 C299.32 -354.75, 377.14 -157.78, 442.43 -0.08 M222.09 -549.3 C283.47 -399.86, 343.98 -249.4, 442.9 -0.01 M441.46 0.75 C311.68 -2.5, 179.39 -2.31, 0.61 -0.81 M442.57 0.63 C278.48 1.46, 115.08 2.98, -0.58 0.73 M0 0 C0 0, 0 0, 0 0 M0 0 C0 0, 0 0, 0 0" stroke="#000000" stroke-width="4" fill="none"></path></g></g><g stroke-linecap="round"><g transform="translate(90.79612193757566 718.4273204525871) rotate(0 171.3343601583456 -341.74810323792417)" fill-rule="evenodd"><path d="M-3.83 -137.23 L173.58 -548.54 L342.88 -139.13 L-1.09 -134.24" stroke="none" stroke-width="0" fill="#fff" fill-rule="evenodd"></path><path d="M0.86 -136.47 C43.97 -253.64, 94.92 -368.98, 173.15 -549 M-0.88 -135.38 C63.06 -290.05, 127.07 -444.71, 171.84 -550.74 M170.85 -550.13 C221.16 -441.71, 264.19 -329.83, 343.61 -134 M171.61 -549.46 C235.4 -393.13, 299.28 -237.97, 342.47 -136.34 M341.78 -137.2 C217.61 -131.69, 93.07 -131.91, -0.94 -134.56 M342.61 -136.55 C244.2 -137.03, 146.89 -136.08, 0.72 -135.55 M0 -135.5 C0 -135.5, 0 -135.5, 0 -135.5 M0 -135.5 C0 -135.5, 0 -135.5, 0 -135.5" stroke="#fff" stroke-width="4" fill="none"></path></g></g><g stroke-linecap="round"><g transform="translate(349.5705101933163 579.9978770229263) rotate(0 117.05201637751998 -110.67655858381886)" fill-rule="evenodd"><path d="M2.58 1.84 L120.12 -220.13 L236.98 0.6 L3.91 -3.62" stroke="none" stroke-width="0" fill="#fff" fill-rule="evenodd"></path><path d="M-2.39 -2.47 C45.33 -83.41, 86.79 -167.59, 116.41 -222.5 M-1.2 -1.23 C38.58 -67.6, 71.92 -135.07, 119.29 -221.51 M116.99 -223.96 C157.68 -136.29, 199.87 -57.71, 232.24 1.45 M116.54 -222.15 C151.76 -166.74, 181.12 -109.83, 233.07 1.46 M236.49 0.1 C178.51 -6.65, 116.47 -3.71, -1.76 1.17 M235.7 -1.04 C162.02 2.91, 89.68 4.52, 1.01 -0.56 M0 0 C0 0, 0 0, 0 0 M0 0 C0 0, 0 0, 0 0" stroke="#fff" stroke-width="4" fill="none"></path></g></g><g stroke-linecap="round" transform="translate(35.62123921438979 10) rotate(0 54.58333333333212 57.916666666666515)"><path d="M42.55 0.97 C50.88 -1.83, 61.31 0.7, 69.88 3.18 C78.44 5.66, 87.68 8.94, 93.95 15.85 C100.22 22.77, 105.45 34.77, 107.51 44.65 C109.57 54.54, 108.8 66.05, 106.3 75.16 C103.8 84.28, 99.04 93.16, 92.53 99.36 C86.02 105.56, 76.04 109.78, 67.24 112.36 C58.45 114.94, 48.59 117.46, 39.75 114.84 C30.91 112.23, 20.5 103.58, 14.22 96.69 C7.94 89.79, 4.33 82.93, 2.07 73.47 C-0.19 64.01, -2.11 49.41, 0.67 39.91 C3.45 30.42, 8.12 22.91, 18.77 16.51 C29.41 10.12, 52.98 1.93, 64.55 1.55 C76.12 1.16, 88.04 13.04, 88.2 14.18 M86.69 14.51 C94.16 19.26, 101.25 28.23, 104.4 37.21 C107.54 46.19, 106.3 58.49, 105.54 68.4 C104.78 78.32, 104.64 89.13, 99.83 96.67 C95.01 104.21, 85.43 110.31, 76.65 113.64 C67.86 116.98, 56.18 118.65, 47.11 116.67 C38.04 114.69, 29.13 108.46, 22.22 101.75 C15.32 95.04, 9.07 84.96, 5.68 76.42 C2.28 67.88, 0.23 59.41, 1.84 50.53 C3.46 41.64, 9.54 31.21, 15.37 23.09 C21.21 14.97, 29.01 5.38, 36.87 1.82 C44.73 -1.73, 54.19 0.23, 62.56 1.77 C70.93 3.31, 83.14 9.31, 87.09 11.06 C91.04 12.82, 86.23 11.58, 86.28 12.32" stroke="none" stroke-width="0" fill="#000"></path><path d="M86.93 11.99 C94.15 17.17, 102.45 29.37, 106.39 38.55 C110.32 47.74, 111.9 58.05, 110.53 67.11 C109.16 76.17, 104.04 85.18, 98.19 92.94 C92.34 100.71, 84.26 109.86, 75.41 113.69 C66.56 117.52, 54.03 117.71, 45.08 115.92 C36.12 114.12, 28.57 108.98, 21.67 102.94 C14.78 96.91, 7.28 88.46, 3.71 79.68 C0.13 70.91, -1.16 60.07, 0.24 50.29 C1.65 40.51, 6.14 28.63, 12.14 20.98 C18.14 13.34, 27.49 7.54, 36.26 4.44 C45.03 1.33, 53.83 -2.68, 64.76 2.33 C75.69 7.34, 94.41 25.38, 101.84 34.49 C109.27 43.6, 109.96 56.88, 109.34 57.01 M58.16 0.32 C67.46 -0.7, 77.65 1.34, 85.59 6.4 C93.54 11.47, 101.51 21.75, 105.84 30.71 C110.17 39.67, 112.03 50.81, 111.56 60.18 C111.1 69.55, 108.73 78.45, 103.04 86.92 C97.36 95.39, 86.28 106.13, 77.46 111 C68.64 115.88, 59.07 116.68, 50.12 116.18 C41.17 115.68, 30.71 113.71, 23.76 108.01 C16.81 102.31, 12 91.07, 8.41 81.98 C4.83 72.9, 2.64 63.18, 2.25 53.5 C1.87 43.83, 1.51 31.33, 6.1 23.93 C10.69 16.52, 21.86 13.27, 29.82 9.08 C37.77 4.88, 49.4 -0.03, 53.84 -1.22 C58.29 -2.41, 56.33 0.92, 56.47 1.93" stroke="#000" stroke-width="4" fill="none"></path></g><g stroke-linecap="round" transform="translate(55.62123921438979 16.66666666666788) rotate(0 47.91666666666606 50.416666666666515)"><path d="M50.83 1.61 C59.06 1.98, 70.91 5.74, 77.82 10.98 C84.73 16.22, 89.16 25.03, 92.29 33.06 C95.43 41.08, 98.29 50.34, 96.65 59.1 C95.01 67.87, 88.7 78.89, 82.45 85.67 C76.21 92.44, 67.01 97.74, 59.17 99.75 C51.33 101.77, 43.07 100.82, 35.43 97.77 C27.8 94.72, 19.19 88.02, 13.37 81.46 C7.55 74.89, 2.05 66.77, 0.51 58.37 C-1.02 49.98, 0.79 39.6, 4.16 31.08 C7.53 22.56, 14 12.49, 20.74 7.25 C27.48 2.01, 38.27 0.33, 44.59 -0.35 C50.9 -1.04, 54.9 2.15, 58.63 3.14 C62.35 4.14, 67.24 5.16, 66.95 5.62 M80.74 12.46 C86.82 18.58, 93.47 30.98, 95.23 40.24 C96.99 49.49, 94.06 60.26, 91.3 68.01 C88.53 75.75, 84.98 81.13, 78.65 86.68 C72.33 92.23, 61.42 99.94, 53.35 101.31 C45.29 102.67, 38.22 98.76, 30.26 94.89 C22.29 91.02, 10.57 85.48, 5.55 78.09 C0.53 70.69, 0.3 59.59, 0.13 50.51 C-0.04 41.42, 0.54 31.38, 4.53 23.59 C8.51 15.81, 16.43 7.28, 24.05 3.78 C31.68 0.29, 41.16 1.81, 50.28 2.61 C59.39 3.41, 73.37 6.31, 78.73 8.57 C84.08 10.84, 82.06 15.29, 82.38 16.19 C82.7 17.1, 81.29 13.46, 80.66 14.02" stroke="none" stroke-width="0" fill="#fff"></path><path d="M72.26 6.25 C79.75 9.87, 87.89 17.87, 91.94 25.6 C95.99 33.34, 97.46 43.89, 96.55 52.66 C95.64 61.43, 91.45 71.12, 86.49 78.24 C81.52 85.36, 74.74 91.69, 66.76 95.37 C58.78 99.06, 47.07 101.76, 38.61 100.35 C30.14 98.94, 21.84 92.79, 15.97 86.91 C10.1 81.03, 6.02 73.47, 3.41 65.08 C0.8 56.7, -1.78 45.58, 0.32 36.6 C2.43 27.62, 9.38 17.21, 16.05 11.21 C22.72 5.2, 32.16 2, 40.33 0.58 C48.51 -0.84, 56.58 -1.37, 65.09 2.7 C73.6 6.76, 86.19 16.74, 91.39 24.95 C96.58 33.16, 97.52 51.41, 96.25 51.94 M77.38 13.64 C84.04 18.03, 88.45 23.9, 90.83 31.57 C93.21 39.24, 93.2 50.14, 91.67 59.67 C90.13 69.19, 87.03 82.33, 81.62 88.7 C76.2 95.06, 67.07 96.52, 59.18 97.84 C51.29 99.17, 42.66 99.8, 34.26 96.66 C25.87 93.51, 14.16 85.68, 8.8 78.96 C3.45 72.25, 2.3 64.97, 2.13 56.37 C1.96 47.76, 4.74 35.33, 7.78 27.35 C10.82 19.37, 13.51 12.63, 20.37 8.5 C27.22 4.36, 39.91 2.94, 48.91 2.54 C57.9 2.14, 69.92 4.91, 74.34 6.08 C78.75 7.26, 74.83 8.8, 75.38 9.58 C75.92 10.37, 78.06 10.32, 77.6 10.77" stroke="#fff" stroke-width="4" fill="none"></path></g><g transform="translate(60.62123921438979 613.4293758944677) rotate(0 251 41.74743326488715)"><text x="0" y="58.49486652977413" font-family="Virgil, Segoe UI Emoji" font-size="66.62721672577938px" fill="#000000" text-anchor="start" style="white-space: pre;" direction="ltr">Lonely mountain</text></g><g stroke-linecap="round"><g transform="translate(315.6212392143898 123.33333333333303) rotate(0 24.78958198800683 -4.805722210556269)"><path d="M1.26 -1.05 C8.05 -1.68, 9.31 -5.79, 22.45 -14.74 M1.96 0.19 C4.7 -4.73, 13.8 -6.86, 22.14 -12.21 M21.69 -13.2 C28.79 -6.03, 36.87 -0.99, 48.32 5.13 M21.24 -11.26 C29.02 -7.75, 33.18 -5.02, 44.27 0.79" stroke="#000000" stroke-width="4" fill="none"></path></g></g></svg>